<?xml version="1.0" encoding="UTF-8" standalone="no"?>
<!DOCTYPE svg PUBLIC "-//W3C//DTD SVG 1.1//EN" "http://www.w3.org/Graphics/SVG/1.1/DTD/svg11.dtd">
<svg width="100%" height="100%" viewBox="0 0 3072 1024" version="1.1" xmlns="http://www.w3.org/2000/svg"
     xml:space="preserve" style="fill-rule:evenodd;clip-rule:evenodd;stroke-linejoin:round;stroke-miterlimit:2;">
    <g transform="matrix(1,0,0,1,-6560,0)">
        <g id="final_logo" transform="matrix(1,0,0,1,-0.333333,0)">
            <rect x="6560.33" y="0" width="3072" height="1024" style="fill:none;"/>
            <g transform="matrix(2.07692,0,0,1.10345,5345.53,-94.8966)">
                <path d="M715.726,679.594L715.726,420.406L746.926,420.406L844.378,606.731L844.378,420.406L875.193,420.406L875.193,679.594L843.993,679.594L746.541,492.906L746.541,679.594L715.726,679.594Z" style="fill:rgb(35,31,32);fill-rule:nonzero;"/>
                <g transform="matrix(1,0,0,1,-8.02469,0)">
                    <path d="M902.156,679.594L902.156,420.406L1053.15,420.406L1053.15,467.531L932.97,467.531L932.97,524.806L1053.15,524.806L1053.15,571.931L932.97,571.931L932.97,632.469L1053.15,632.469L1053.15,679.594L902.156,679.594Z" style="fill:rgb(35,31,32);fill-rule:nonzero;"/>
                </g>
                <g transform="matrix(1,0,0,1,-10.2716,0)">
                    <path d="M1074.33,679.594L1074.33,420.406L1100.14,420.406L1163.89,504.506L1164.85,504.506L1228.6,420.406L1254.41,420.406L1254.41,679.594L1223.59,679.594L1223.59,492.906L1164.85,566.939L1163.89,566.939L1105.15,492.906L1105.15,679.594L1074.33,679.594Z" style="fill:rgb(35,31,32);fill-rule:nonzero;"/>
                </g>
                <g transform="matrix(1,0,0,1,-18.2963,0)">
                    <path d="M1281.37,679.594L1281.37,420.406L1432.36,420.406L1432.36,467.531L1312.18,467.531L1312.18,524.806L1432.36,524.806L1432.36,571.931L1312.18,571.931L1312.18,632.469L1432.36,632.469L1432.36,679.594L1281.37,679.594Z" style="fill:rgb(35,31,32);fill-rule:nonzero;"/>
                </g>
                <g transform="matrix(1,0,0,1,-12.8395,0)">
                    <path d="M1449.12,681.406L1449.12,634.281L1559.86,634.644C1565.51,634.644 1569.84,632.167 1572.86,627.213C1575.88,622.258 1577.38,614.223 1577.38,603.106C1577.38,591.99 1575.88,583.954 1572.86,579C1569.84,574.046 1565.51,571.569 1559.86,571.569L1490.91,571.569C1476.66,571.569 1465.59,565.104 1457.69,552.175C1449.79,539.246 1445.84,520.215 1445.84,495.081C1445.84,469.948 1449.79,450.917 1457.69,437.988C1465.59,425.058 1476.66,418.594 1490.91,418.594L1579.41,418.594L1599.15,465.719L1494.18,465.356C1488.66,465.356 1484.36,467.713 1481.28,472.425C1478.2,477.138 1476.66,484.69 1476.66,495.081C1476.66,505.473 1478.2,513.025 1481.28,517.737C1484.36,522.45 1488.66,524.806 1494.18,524.806L1563.13,524.806C1577.38,524.806 1588.46,531.392 1596.36,544.563C1604.25,557.733 1608.2,577.248 1608.2,603.106C1608.2,628.723 1604.25,648.177 1596.36,661.469C1588.46,674.76 1577.38,681.406 1563.13,681.406L1449.12,681.406Z" style="fill:rgb(35,31,32);fill-rule:nonzero;"/>
                </g>
                <g transform="matrix(1,0,0,1,-14.6049,0)">
                    <path d="M1680.23,679.594L1680.23,587.156L1607.24,420.406L1645.37,420.406L1695.64,537.856L1745.71,420.406L1783.84,420.406L1711.24,586.794L1711.24,679.594L1680.23,679.594Z" style="fill:rgb(35,31,32);fill-rule:nonzero;"/>
                </g>
                <g transform="matrix(1,0,0,1,-18.7778,0)">
                    <path d="M1792.9,681.406L1792.9,634.281L1903.64,634.644C1909.29,634.644 1913.62,632.167 1916.64,627.213C1919.65,622.258 1921.16,614.223 1921.16,603.106C1921.16,591.99 1919.65,583.954 1916.64,579C1913.62,574.046 1909.29,571.569 1903.64,571.569L1834.69,571.569C1820.44,571.569 1809.36,565.104 1801.47,552.175C1793.57,539.246 1789.62,520.215 1789.62,495.081C1789.62,469.948 1793.57,450.917 1801.47,437.988C1809.36,425.058 1820.44,418.594 1834.69,418.594L1942.93,418.594L1942.93,465.719L1837.96,465.356C1832.44,465.356 1828.14,467.713 1825.06,472.425C1821.98,477.138 1820.44,484.69 1820.44,495.081C1820.44,505.473 1821.98,513.025 1825.06,517.737C1828.14,522.45 1832.44,524.806 1837.96,524.806L1906.91,524.806C1921.16,524.806 1932.24,531.392 1940.13,544.563C1948.03,557.733 1951.98,577.248 1951.98,603.106C1951.98,628.723 1948.03,648.177 1940.13,661.469C1932.24,674.76 1921.16,681.406 1906.91,681.406L1792.9,681.406Z" style="fill:rgb(35,31,32);fill-rule:nonzero;"/>
                </g>
            </g>
        </g>
    </g>
</svg>
