<?xml version="1.0" standalone="no"?>
<!DOCTYPE svg PUBLIC "-//W3C//DTD SVG 20010904//EN"
 "http://www.w3.org/TR/2001/REC-SVG-20010904/DTD/svg10.dtd">
<svg version="1.0" xmlns="http://www.w3.org/2000/svg"
 width="700.000000pt" height="700.000000pt" viewBox="0 0 700.000000 700.000000"
 preserveAspectRatio="xMidYMid meet">
<g transform="translate(0.000000,700.000000) scale(0.100000,-0.100000)"
fill="#000000" stroke="none">
<path d="M1117 5672 l-132 -3 0 -2169 0 -2170 50 0 c93 -1 880 -2 901 -1 l20
1 -1 1098 c0 831 3 1114 12 1165 33 180 151 326 325 399 62 27 88 32 173 34
118 4 168 -6 255 -49 54 -27 388 -230 595 -362 61 -39 155 -98 173 -109 7 -4
-21 41 -63 101 -87 123 -649 920 -665 943 -6 8 -33 47 -61 85 -27 39 -57 81
-67 95 -109 160 -413 586 -445 625 -137 163 -332 274 -537 304 -80 12 -314 18
-533 13z"/>
<path d="M5149 5672 l-105 -3 -1 -1117 c0 -1010 -2 -1123 -17 -1181 -45 -172
-177 -315 -346 -373 -92 -32 -248 -31 -338 0 -38 14 -218 118 -444 258 -210
129 -382 233 -384 231 -3 -2 68 -106 130 -192 8 -11 84 -119 169 -240 86 -121
192 -272 237 -335 45 -63 184 -261 310 -440 126 -179 273 -388 327 -464 148
-210 254 -308 422 -391 55 -27 148 -61 196 -71 100 -20 172 -25 398 -25 144 0
273 0 287 0 l25 1 0 2170 c0 1924 -2 2170 -15 2170 -166 3 -773 4 -851 2z"/>
</g>
</svg>
