<svg width="100%" height="100%" viewBox="0 0 1024 1024" version="1.1" xmlns="http://www.w3.org/2000/svg"
     xml:space="preserve" style="fill-rule:evenodd;clip-rule:evenodd;stroke-linejoin:round;stroke-miterlimit:2;">
    <g transform="matrix(1,0,0,1,-4928,0)">
        <g id="icon5" transform="matrix(1,0,0,1,-0.333333,0)">
            <rect x="4928.33" y="0" width="1024" height="1024" style="fill:none;"/>
            <g transform="matrix(4.61538,0,0,2.45211,1768.98,-836.659)">
                <path d="M795.459,550C795.459,550 784.105,536.748 772.337,523.013C767.127,516.932 760.575,516.641 755.219,522.253C749.862,527.865 746.541,538.498 746.541,550.036L746.541,679.594L715.726,679.594L715.726,420.406L732.322,420.406C741.479,420.406 750.064,428.786 755.34,442.873C769.235,479.975 795.459,550 795.459,550ZM795.459,550C795.459,550 806.868,563.231 818.667,576.914C823.87,582.948 830.4,583.211 835.736,577.603C841.072,571.995 844.378,561.392 844.378,549.889L844.378,420.406L875.193,420.406L875.193,679.594L859.642,679.594C849.83,679.594 840.63,670.614 834.976,655.518C820.94,618.04 795.459,550 795.459,550Z"
                      style="fill:#fafafa;"/>
            </g>
        </g>
    </g>
</svg>
